# xmcd CD database file
#
# Track frame offsets:
#	182
#	10127
#	18827
#	29405
#	39530
#	48605
#	51870
#	61332
#	74732
#	86840
#	94807
#	105100
#	117272
#	125110
#	135040
#	143242
#	154067
#	167407
#
# Disc length: 2389 seconds
#
# Revision: 0
# Processed by: cddbd v1.5.2PL0 Copyright (c) Steve Scherf et al.
# Submitted via: CDex 1.51
#
DISCID=ee095312
DTITLE=Pepa Stross - Lasecky
DYEAR=1994
DGENRE=Blues
TTITLE0=Kapka deste
TTITLE1=Hejna
TTITLE2=Asi
TTITLE3=Teseni
TTITLE4=Vlastne o nicem
TTITLE5=Svevole
TTITLE6=Lampa
TTITLE7=Houpam te
TTITLE8=Jako kdyz se pari velryby
TTITLE9=Predkolebavka
TTITLE10=Zidle
TTITLE11=Jednoduse
TTITLE12=Minka
TTITLE13=Ja az umru
TTITLE14=Pravda
TTITLE15=Opus 57
TTITLE16=Laska se vi
TTITLE17=Vrasky chechtavy
EXTD=YEAR: 1994
EXTT0=
EXTT1=
EXTT2=
EXTT3=
EXTT4=
EXTT5=
EXTT6=
EXTT7=
EXTT8=
EXTT9=
EXTT10=
EXTT11=
EXTT12=
EXTT13=
EXTT14=
EXTT15=
EXTT16=
EXTT17=
PLAYORDER=
